# xmcd
#
# Track frame offsets:
#	150
#	16557
#	28770
#	45690
#	64047
#	87447
#	103885
#	120275
#	136080
#	158972
#
# Disc length: 2472 seconds
#
# Revision: 2
# Processed by: cddbd v1.4PL0 Copyright (c) Steve Scherf et al.
# Submitted via: CDmax 1.9
#
DISCID=7609a60a
DTITLE=Maria McKee - You Gotta Sin To Get Saved
DYEAR=1993
DGENRE=Country
TTITLE0=I'm Gonna Soothe You
TTITLE1=My Lonely Sad Eyes
TTITLE2=My Girlhood Among The Outlaws
TTITLE3=Only Once
TTITLE4=I Forgive You
TTITLE5=I Can't Make It Alone
TTITLE6=Precious Time
TTITLE7=The Way Young Lovers Do
TTITLE8=Why Wasn't I More Grateful (When Life Was Sweet)
TTITLE9=You Gotta Sin To Get Saved
EXTD=
EXTT0=
EXTT1=
EXTT2=
EXTT3=
EXTT4=
EXTT5=
EXTT6=
EXTT7=
EXTT8=
EXTT9=
PLAYORDER=
